<svg xmlns="http://www.w3.org/2000/svg" width="1920" height="716" version="1"><path d="M0 508h1920v10H0z"/><g fill="none" stroke="#fff" stroke-linecap="round" stroke-linejoin="round" stroke-width="13"><path fill="#000" stroke="#000" stroke-linecap="butt" stroke-linejoin="miter" stroke-width="27" d="M331 430c2-17 1-20 14-17h3c10 0 23-2 30-5 17-8 27-20 11-17-37 8-40-5-40-5 39-58 56-131 41-149-38-49-104-26-105-25-8-2-16-2-25-2-17-1-30 4-39 11 0 0-118-49-113 61 1 24 34 177 72 131 14-17 28-31 28-31 7 4 15 6 23 6l1-1v6c-10 11-7 14-27 17-20 5-8 12 0 14 9 2 30 5 45-15v3c4 3 4 22 4 36s1 27 4 34c2 8 6 27 32 21 22-4 38-11 40-74"/><path fill="#336791" stroke-width="10" d="M389 391c-37 8-40-5-40-5 39-58 55-131 41-149-38-49-104-26-105-25-8-2-16-2-25-2-17-1-30 4-39 11 0 0-119-49-113 61 1 24 34 177 72 131l28-31c6 4 14 6 23 6l1-1v6c-10 11-7 14-27 17-20 5-8 12 0 14 9 2 30 5 45-15l-1 3c5 3 7 20 7 36-1 15-1 25 2 34 3 8 6 27 32 21 22-4 33-16 35-36 1-15 3-13 3-26l3-6c2-20 0-25 14-22h3c10 0 23-2 30-6 16-7 27-20 11-16z"/><path stroke-width="10" d="M252 402c-1 36 0 73 4 82s11 26 37 20c22-4 30-13 33-34l8-63M221 220s-119-48-113 62c1 24 34 177 72 131l27-31m78-170c-5 0 65-26 105 25 14 17-2 91-41 148"/><path stroke-linejoin="bevel" stroke-width="10" d="M349 385s2 13 40 6c16-4 5 9-11 16-13 7-43 8-44 0-1-22 16-16 15-22-1-5-9-9-14-22-4-11-61-93 15-80 3-1-19-73-90-74-72-1-69 88-69 88"/><path stroke-width="10" d="M232 393c-10 11-7 14-27 17-20 5-8 12 0 14 9 2 30 5 45-15 4-6 0-16-7-18-2-1-6-3-11 2z"/><path stroke-width="10" d="M231 393c-1-6 2-14 6-24 5-13 17-27 7-70-7-32-53-7-54-2 0 4 2 22-1 42-3 27 17 51 41 48"/><path fill="#fff" stroke-linecap="butt" stroke-linejoin="miter" stroke-width="3" d="M220 296c0 1 3 6 7 6s7-3 7-5-3-2-7-3-7 0-7 1z"/><path fill="#fff" stroke-linecap="butt" stroke-linejoin="miter" stroke-width="1" d="M337 293c0 2-3 5-6 6-5 1-8-2-8-4 0-1 3-3 7-3 4-1 7 0 7 1z"/><path stroke-width="10" d="M350 283c1 12-2 20-2 32 0 18 8 39-6 59"/></g><path d="M252 124a215 215 0 1 0 122 394l14-10 126 127h1c3 4 9 6 15 6 13 0 23-10 23-22 0-6-3-13-6-16L420 476l10-14a215 215 0 0 0-178-338zm0 46c93 0 170 77 170 170s-77 170-170 170S82 434 82 340s76-170 170-170z"/><g fill="#092e20"><path d="M679 145h74v341c-38 8-66 10-96 10-90 0-137-40-137-118 0-75 50-124 127-124 12 0 21 1 32 4zm0 172c-8-3-16-4-25-4-37 0-58 23-58 63s20 61 58 61c8 0 15 0 25-2z"/><path d="M870 259v171c0 59-4 87-17 111-12 24-28 39-60 55l-69-33c33-15 49-28 59-49s14-45 14-109V259zm-73-113h73v75h-73zm118 130c32-16 63-22 97-22 38 0 63 10 74 29 6 11 8 26 8 56v150c-33 5-74 8-105 8-62 0-90-21-90-69 0-52 37-76 128-83v-17c0-13-7-18-26-18-27 0-58 8-86 23zm115 117c-49 5-65 12-65 32 0 14 10 21 30 21 11 0 21-1 35-4zm100-122c44-12 80-17 116-17 38 0 65 8 81 25 16 16 20 33 20 70v145h-73V352c0-28-10-39-36-39-10 0-19 1-34 5v176h-74zm246 263c26 13 52 19 79 19 48 0 69-19 69-66v-2c-14 8-29 10-48 10-65 0-106-42-106-110 0-83 61-131 169-131 31 0 60 4 96 11l-25 53c-20-4-2-1-17-2v8l1 31 1 40 1 30v20c0 63-6 93-21 117-23 36-63 54-120 54-28 0-53-4-79-14zm146-220h-7c-15-1-31 3-43 10-18 10-27 28-27 54 0 37 19 58 51 58 10 0 18-2 28-5v-25l-1-28v-34l-1-25zm227-61c74 0 119 46 119 121 0 77-47 126-122 126-73 0-119-47-119-121 0-78 47-126 122-126zm-1 187c28 0 45-23 45-64 0-40-16-64-45-64s-46 24-46 64c0 41 17 64 46 64z"/></g><path d="M1880 144h10v352h-10z"><animate attributeName="fill-opacity" attributeType="XML" dur="1.5s" repeatCount="indefinite" values="0;0;1;0;0"/></path></svg>
