<svg xmlns="http://www.w3.org/2000/svg" width="1920" height="716"><g fill="none" stroke="#fff" stroke-width="12.5" stroke-linecap="round" stroke-linejoin="round"><path fill="#000" stroke="#000" stroke-width="37.4" d="M375.8 465.5c2.8-23.6 2-27 19.6-23.2l4.4.4c13.5.6 31.2-2.2 41.6-7 22.4-10.4 35.6-27.7 13.6-23.2-50.3 10.4-53.8-6.6-53.8-6.6 53-78.8 75.3-179 56.2-203.3-52.3-66.8-142.8-35.3-144.3-34.3h-.5c-10-2-21-3.3-33.5-3.5-22.8-.4-40 6-53 16 0 0-161.6-66.6-154 83.5 1.5 32 45.7 241.6 98.5 178.3 19.2-23.2 37.8-42.7 37.8-42.7 9.2 6 20.3 9.2 32 8l.8-.7c-.3 2.4-.2 5.2.4 9-13.6 15-9.6 17.4-36.8 23-27.4 5.6-11.3 15.7-.8 18.3 12.8 3.2 42.3 7.8 62.3-20.2l-.8 3.3c5 4.3 5 30.6 5.2 49.5.8 19 2 36.4 6 46.7 3.7 10.3 8.3 37 44 29.3 29.7-6 52.7-15.2 54.7-101" stroke-linecap="butt" stroke-linejoin="miter"/><path fill="#336791" stroke="none" d="M455 412.5c-50.3 10.4-53.8-6.6-53.8-6.6 53-78.8 75.3-179 56.2-203.4-52.3-66.7-142.8-35.2-144.3-34.2h-.5c-10-2-21-3.3-33.5-3.5-22.8-.4-40 6-53 16 0 0-161.6-66.6-154 83.5 1.5 32 45.5 241.6 98.3 178.3 19.2-23.2 37.8-42.7 37.8-42.7 9.2 6 20.3 9.2 32 8l.8-.7c-.3 2.4-.2 5.2.4 9-13.6 15-9.6 17.4-36.8 23-27.4 5.6-11.3 15.7-.8 18.3 12.8 3.2 42.3 7.8 62.3-20.2l-.8 3.3c5.2 4.3 9 27.7 8.3 49-.6 21.2-1 35.8 3.2 47.2 4.2 11.3 8.4 37 44 29.3 29.8-6.4 45.3-23 47.4-50.5 1.5-19.7 5-16.8 5-34.3l3-8.3c3-26.7.4-35.3 18.8-31.3l4.4.4c13.5.7 31.2-2 41.6-7 22.4-10.3 35.6-27.6 13.6-23z"/><path d="M268.6 427.8c-1.5 49.5.2 99.4 5 111.5 5 12 15.3 35.7 51 28 29.8-6.4 40.6-18.7 45.3-46 3.5-20 10.2-76 11-87.3M225.6 179.6s-161.4-66-154 84c1.7 32 46 241.7 98.6 178.4 19.2-23.2 36.6-41.4 36.6-41.4m106-233c-5.4 1.7 90-35 144 34.3 19.4 24.5-3 124.5-56 203.4"/><path d="M400.9 405.3s3.4 17 53.7 6.6c22-4.5 8.8 12.8-13.5 23.2-18.4 8.5-59.5 10.7-60.2-1-1.7-30.5 21.7-21.2 20-28.8-1.5-7-12-13.6-19-30.4-6-14.6-82.7-126.8 21.4-110.2 3.8-.8-27.2-99-124.6-100.6-97-1.6-94 119.8-94 119.8" stroke-linejoin="bevel"/><path d="M241.2 415.6c-13.6 15.2-9.6 18-36.7 23.5-28 5.6-11.8 15.7-1 18.3 13 3.7 42 8 62-20 6-8.2 0-22-8.4-25.3-4-1.6-9.6-3.7-16.5 4z"/><path d="M240.3 415.3c-1.4-8.8 3-19.5 7.6-32 7-18.5 22.8-37 10-96.2-9.5-44-73.3-9.2-73.4-3.2 0 6 2.4 30.3-1 58.5-5.7 37 23 68.7 56 65"/><path fill="#fff" stroke-width="4.2" d="M225.1 283c-.3 2 3.7 7.5 9 8.2 5.2.2 9.7-4 10-6 .3-2-3.7-4-9-5-5.2-.8-9.7.3-10 2.3z" stroke-linecap="butt" stroke-linejoin="miter"/><path fill="#fff" stroke-width="2.1" d="M384.6 278.8c.2 2-3.8 7.5-9 8.3-5.3.7-9.8-3.6-10-5.6-.3-2 3.7-4.3 9-5 5.2-.8 9.7.3 10 2.3z" stroke-linecap="butt" stroke-linejoin="miter"/><path d="M403.3 264.7c.8 16-3.5 27-4 44-.8 24.7 11.8 53-7.2 81.4"/></g><path fill="#231f20" d="M1557.1 294.06v124.37c0 31.63 15.33 49.32 46 49.32 8.23 0 16.3-.4 24.3-1.12 7.96-.7 14.74-1.8 20.25-3.27V294.1h36.24v191.77c-10.9 3.74-23.5 6.55-37.7 8.18-14.3 1.87-28.6 2.8-43.1 2.8-27.1 0-47.6-8.64-61.6-22.2-14-13.56-21.1-34.13-21.1-61.72V293.7h36.6m-561.2 0v124.4c0 31.56 15.3 49.32 46 49.32 8.15 0 16.3-.47 24.24-1.17 7.95-.7 14.73-1.82 20.3-3.27v-169h36.22V485.8c-10.9 3.83-23.46 6.6-37.7 8.3-14.26 1.96-28.6 2.92-43.1 2.92-27.06 0-47.58-8.65-61.58-22.2-14.04-13.57-21.05-34.07-21.05-61.6V293.96h36.6m412.65-64.06l-32.65 5.93-.1 197.72c0 38.1 20.6 62.9 65.93 62.9 11.23 0 32.73-3.05 45.6-5.16l-4.45-25.8c-.25 1.13-28.77 3.93-43.96 3.23-15.2-.7-29-13.3-30.26-25.95V322.9h75.27v-29h-75.27l.25-64.13zm-626.9-34.35l-36.6 5.9v284.4c21.5 7.48 44.32 11.26 68.5 11.26 4.1 0 8.1-.1 11.96-.4 71.4.38 108.34-56.24 98.8-121.95-7.5-46.34-45.98-85.47-91-85.47-17.86 0-32.1 4.84-42.78 8.7-3.2 1.2-6.13 2.47-8.9 3.8V195.6zm51.3 122.96c40.2 2.1 56.28 37.4 57.5 72.2 1.73 47.58-31.44 81.1-76.2 77.1-10.34-.9-21.24-1.3-32.6-3.92V333c4.8-4.08 10.17-7.33 16.13-9.74 8.5-3.1 20.23-5.37 35.17-4.67zM1208.5 492h-36.6V302.1c11.1-3.87 23.44-6.65 36.98-8.34 13.76-1.96 27.9-2.92 42.4-2.92 54.1 0 81.1 26.94 81.1 80.85V492h-36.22V366.67c0-30.95-14.96-46.4-44.9-46.4-7.94 0-15.7.37-23.18 1.1-7.48.7-14.02 1.68-19.56 2.87V492.1m-638.2-197.92v124.36c0 31.56 15.3 49.33 45.98 49.33 8.18 0 16.3-.47 24.26-1.17 8.2-.7 14.73-1.87 20.34-3.27V293.97h36.24v191.78c-10.76 3.86-23.38 6.64-37.64 8.33-14.26 1.94-28.52 2.9-43 2.9-26.9 0-47.47-8.66-61.5-22.17-14.02-13.5-21.04-34.1-21.04-61.6V293.9h36.47" font-weight="bold" font-size="40" style="line-height:125%;text-align:start" font-family="Xenu"/><path fill="#f47421" d="M1877.92 291.4c0 42.6-34.53 77.14-77.14 77.14-42.62 0-77.15-34.53-77.15-77.15 0-42.7 34.53-77.2 77.15-77.2 42.6 0 77.14 34.5 77.14 77.1"/><path fill="#fff" d="M1821.86 254.88c4.9 2.85 11.22 1.17 14.03-3.74 2.8-4.96 1.1-11.22-3.8-14.1-4.9-2.8-11.2-1.17-14.1 3.74-2.8 4.96-1.2 11.22 3.8 14.1zm-21.08 66.62c-4.54 0-8.82-1.02-12.67-2.8l-7.1 12.8c6 2.98 12.7 4.64 19.9 4.64 4.13 0 8.13-.6 11.9-1.64.7-4.14 3.17-7.95 7.1-10.2 3.9-2.26 8.4-2.47 12.35-1 7.7-7.48 12.6-17.67 13.3-29.03l-14.5-.23c-1.4 15.43-14.24 27.44-29.9 27.44zm0-60.2c15.7 0 28.6 12.07 29.97 27.43l14.68-.23c-.7-11.34-5.68-21.5-13.33-29-3.9 1.48-8.4 1.25-12.32-1.02-3.93-2.24-6.38-6.08-7.06-10.2-3.74-1.05-7.7-1.63-11.92-1.63-7 0-13.8 1.68-19.64 4.63l7.25 12.86c4-1.83 8.2-2.8 12.7-2.8zm-30.1 30.1c0-10.17 5.06-19.17 12.8-24.62l-7.53-12.63c-9 6.04-15.7 15.25-18.47 26.02 3.23 2.67 5.3 6.7 5.3 11.22 0 4.5-2.1 8.5-5.32 11.2 2.8 10.7 9.5 20 18.47 26l7.55-12.6c-7.72-5.5-12.8-14.5-12.8-24.7zm51.2 36.5c-4.95 2.86-6.63 9.13-3.78 14.08 3.04 4.9 9.12 6.6 14.26 3.74 4.9-2.8 6.78-9.1 3.74-14.02-2.8-4.96-9.12-6.64-14.03-3.8zm-73.6-46.8c-5.67 0-10.27 4.6-10.27 10.3 0 5.68 4.6 10.28 10.3 10.28 5.7 0 10.3-4.6 10.3-10.3 0-5.67-4.6-10.27-10.3-10.27"/></svg>