<svg xmlns="http://www.w3.org/2000/svg" viewBox="0 0 508 189.4"><path fill="#3b77a8" d="M64 39.3c-4.7 0-9 .4-12.8 1-10.8 2-13 6.3-13 13.7v10h26.3v3.4H28.3C20.5 67.4 14 72 12 80.7c-3 10-3 16.2 0 26.7 1.5 7.8 6 13.2 13.8 13.2H35v-11.8c0-8.8 7.4-16.4 16.2-16.4h26.4c7.2 0 13-6 13-13.3V54c0-7-5.8-12.4-13-13.7-5-.7-9.8-1-13.8-1zm-14.5 8c2.8 0 5 2.3 5 5 0 3-2.2 5-5 5s-4.8-2-4.8-5c0-2.8 2-5 4.8-5z"/><path fill="#ffd43b" d="M94 67.4v11.8c0 8.8-7.7 16.6-16.5 16.6H51.2c-7 0-13 6-13 13.2v25c0 7 6.2 11.3 13 13.3 9 2.5 16.7 3 26.5 0 7-2 13.5-5.7 13.5-13.3v-10H64.8v-3.4H104c7.6 0 10.4-5.2 13-13.2 3-8.3 3-16.2 0-26.7-1.6-7.6-5.2-13.3-12.8-13.3zm-15 63.3c2.7 0 5 2.2 5 5s-2.3 5-5 5-5-2.3-5-5c0-3 2.3-5 5-5z"/><g transform="translate(119.723 22.85) scale(.50385)"><path fill="#aec84d" d="M46.2 106.7v92.5s-.7 52.6 48.5 51.5c7.6-.4 36 1 43-21v17h34v-140h-34v86.5s1 31-28 29.5-28.5-27-28.5-27l-.2-89z"/><path fill="#141215" d="M286.7 137.3L332.3 250h14L403 41.3l-34.3-8.6-34.4 129L293.7 60h-14.4L240 160.7l-35.3-128-34 8.6 56.3 209h14M402 203s8.7 26 23 35.3c14.3 9.4 38.7 13 50.3 12.7 11.7-.3 71-1.3 71.7-56.3 5-28-19.3-48.4-26-52.4s-28.3-18-45.7-23c-17.3-5-34.3-16-35.6-24.6-1.4-8.7 0-34 37.3-34.4C503 63 504 74 508 80l7 14.3L543.7 81s-11.4-27-14-29.3c-2.7-2.4-13.4-19-55.4-18.7S407.7 50.7 406 80.7s4.7 44 35.3 62.6c19 10.4 39 12.7 59.7 28.4 14.3 11.6 11.3 25 11 30.6-.3 5.7-7.3 21.7-36.3 20.4-29-1.4-34.7-13-36.7-16.4-2-3.3-9-17-9-17zM710.7 36.3H746v211.3h-35.3zM636.3 135v27.7h27.4v56s-8.4 5-26.7 4.3-47.3 1.7-49.7-81.7c-2.3-83.3 37.4-80.6 42-80.6 4.7 0 28 .3 40 33.3.4.3 28.7-13.3 28.7-13.3S685.7 30.3 631 33s-75.7 31-78.7 102 22 117.3 81.7 115 64-7.3 64-7.3V135z"/><circle cx="521.3" cy="71" r="11.7" fill="#aec84d"/><circle cx="521.3" cy="71" r="3.5" fill="#252326"/></g></svg>