<svg xmlns="http://www.w3.org/2000/svg" width="1920" height="716"><g transform="matrix(1.78 0 0 1.78 566.09 115.66)"><path fill="#aec84d" d="M46.2 106.7v92.5s-.7 52.6 48.5 51.5c7.6-.4 36 1 43-21v17h34v-140h-34v86.5s1 31-28 29.5-28.5-27-28.5-27l-.2-89z"/><path fill="#141215" d="M286.7 137.3L332.3 250h14L403 41.3l-34.3-8.6-34.4 129L293.7 60h-14.4L240 160.7l-35.3-128-34 8.6 56.3 209h14M402 203s8.7 26 23 35.3c14.3 9.4 38.7 13 50.3 12.7 11.7-.3 71-1.3 71.7-56.3 5-28-19.3-48.4-26-52.4s-28.3-18-45.7-23c-17.3-5-34.3-16-35.6-24.6-1.4-8.7 0-34 37.3-34.4C503 63 504 74 508 80l7 14.3L543.7 81s-11.4-27-14-29.3c-2.7-2.4-13.4-19-55.4-18.7S407.7 50.7 406 80.7s4.7 44 35.3 62.6c19 10.4 39 12.7 59.7 28.4 14.3 11.6 11.3 25 11 30.6-.3 5.7-7.3 21.7-36.3 20.4-29-1.4-34.7-13-36.7-16.4-2-3.3-9-17-9-17zM710.7 36.3H746v211.3h-35.3zM636.3 135v27.7h27.4v56s-8.4 5-26.7 4.3-47.3 1.7-49.7-81.7c-2.3-83.3 37.4-80.6 42-80.6 4.7 0 28 .3 40 33.3.4.3 28.7-13.3 28.7-13.3S685.7 30.3 631 33s-75.7 31-78.7 102 22 117.3 81.7 115 64-7.3 64-7.3V135z"/><circle cx="521.3" cy="71" r="11.7" fill="#aec84d"/><circle cx="521.3" cy="71" r="3.5" fill="#252326"/></g><g transform="translate(24.92 170.16) scale(12.72)"><path fill="#b2710d" stroke="#6f4709" stroke-width="1.96" d="M29.84 2.54c-2.2 2.25-1.74 6.3 1.05 9.06 2.8 2.75 6.8 3.14 9 .88 2.2-2.26 1.74-6.3-1.06-9.06-2.8-2.75-6.87-3.14-9.1-.88zm-17.34 0c2.23 2.25 1.76 6.3-1.04 9.06-2.8 2.75-6.86 3.14-9.08.88S.63 6.18 3.43 3.42C6.23.67 10.3.28 12.5 2.54z"/><g stroke-linejoin="round" stroke-linecap="round"><path fill="#b2710d" stroke="#6f4709" stroke-width="1.96" d="M37.67 13.7c0 9.36-7.6 16.97-16.97 16.97-9.38 0-16.98-7.6-17-16.97C3.7 4.3 11.3 1 20.7.97c9.38 0 16.98 3.3 17 12.7z"/><path fill="none" stroke="#fff" stroke-width="2.23" d="M35.58 13.7c0 8.2-6.66 14.88-14.88 14.9-8.23 0-14.9-6.68-14.9-14.9 0-8.24 6.66-10.4 14.88-10.4 8.23 0 14.9 2.15 14.9 10.37v.02z" opacity=".13"/><path fill="#c00" stroke="#c00" stroke-width=".23" d="M24.75 23.24c0 1.75-1.47 3.16-3.28 3.16-1.8 0-3.28-1.4-3.28-3.16 0-1.74 1.4.34 3.2.34 1.8 0 3.3-2.08 3.3-.34z"/></g><path fill="#2e3436" d="M17.07 19.86c1.05-1.55 2.34-3.07 3.1-4.27.83-1.2 1.13-5.5 1.37-5.5s.54 4.3 1.36 5.4c.77 1.2 2.06 2.7 3.1 4.26 1.07 1.55 1.4 2.9.56 3.95-.78 1-2.74 1.7-5.02 1.7s-4.24-.7-5.02-1.7c-.84-1.03-.5-2.4.55-3.94z"/><path fill="#fff" stroke="#2e3436" stroke-width="1.96" d="M18.25 10.48c0 2.72-2.3 4.93-5.12 4.93C10.3 15.4 8 13.2 8 10.5c0-2.73 2.3-4.94 5.13-4.94s5.12 2.2 5.12 4.94z"/><path fill="#eec765" d="M8.25 10.48c0-2.6 2.2-4.7 4.88-4.7 2.7 0 4.88 2.1 4.88 4.7s-2.1 4.7-4.8 4.7c-2.7 0-4.9-2.1-4.9-4.7z"/><ellipse cx="13.13" cy="10.48" fill="#6f4709" stroke="#2e3436" rx="2.78" ry="2.68"/><path fill="#fff" stroke="#2e3436" stroke-width="1.96" d="M24.3 10.48c0 2.72 2.3 4.93 5.12 4.93 2.83 0 5.12-2.2 5.12-4.9s-2.3-4.9-5.12-4.9c-2.83 0-5.12 2.2-5.12 4.97z"/><path fill="#eec765" d="M34.3 10.48c0-2.6-2.2-4.7-4.88-4.7-2.7 0-4.88 2.1-4.88 4.7s2.2 4.7 4.88 4.7c2.7 0 4.88-2.1 4.88-4.7z"/><path fill="#6f4709" stroke="#2e3436" d="M26.64 10.48c0 1.47 1.24 2.67 2.78 2.67 1.53 0 2.78-1.2 2.78-2.67 0-1.48-1.25-2.68-2.78-2.68-1.54 0-2.78 1.2-2.78 2.68z"/><path fill="#6f4709" d="M26.17 25.83c0 1.97-2.07 3.57-4.63 3.57s-4.63-1.6-4.63-3.57 2.1.6 4.7.6 4.66-2.57 4.66-.6z"/></g></svg>